<svg width="26" height="21" viewBox="0 0 26 21" fill="none" xmlns="http://www.w3.org/2000/svg">
<g clip-path="url(#clip0_91710_2)">
<path d="M22.5469 2.04666C21.902 1.56678 19.2918 0.0368933 13.4723 0.0163855C13.4723 0.0163855 6.61173 -0.315841 3.27033 2.1615C1.41173 3.66267 0.756655 5.86521 0.685561 8.59275C0.614468 11.3203 0.528139 16.4308 6.62697 17.8172H6.63205L6.62697 19.9336C6.62697 19.9336 6.58634 20.7908 7.28712 20.9631C8.13009 21.1763 8.62775 20.5242 9.43517 19.8228C9.87697 19.4373 10.4863 18.8713 10.9485 18.4406C15.1227 18.7236 18.327 18.0756 18.6926 17.9812C19.5356 17.7597 24.3039 17.2676 25.0758 12.157C25.8781 6.8824 24.6899 3.55193 22.5469 2.04666V2.04666ZM23.2527 11.7715C22.5977 16.0371 18.7332 16.3078 18.0223 16.4924C17.7176 16.5703 14.8992 17.1363 11.3598 16.9517C11.3598 16.9517 8.71916 19.5234 7.8965 20.192C7.62736 20.4094 7.33283 20.3888 7.3379 19.9582C7.3379 19.6752 7.35822 16.4431 7.35822 16.4431C7.35314 16.4431 7.35314 16.4431 7.35822 16.4431C2.18869 15.2865 2.49337 10.9347 2.54923 8.65838C2.60509 6.38201 3.1383 4.5158 4.71251 3.26072C7.54103 1.18943 13.3656 1.49705 13.3656 1.49705C18.2863 1.51346 20.6426 2.71111 21.191 3.11307C23.0039 4.36814 23.9281 7.37049 23.2527 11.7715V11.7715ZM16.1942 8.4574C16.2145 8.81014 15.5594 8.83475 15.5391 8.48201C15.4832 7.57967 14.9602 7.1408 13.8836 7.09158C13.4469 7.07107 13.4875 6.54197 13.9192 6.56248C15.336 6.624 16.1231 7.28025 16.1942 8.4574ZM17.225 8.92088C17.2758 7.18182 15.9301 5.8201 13.3758 5.66834C12.9442 5.64373 12.9899 5.11463 13.4215 5.13924C16.3668 5.3115 17.936 6.94803 17.8801 8.93318C17.875 9.28592 17.2149 9.26951 17.225 8.92088V8.92088ZM19.6117 9.47049C19.6168 9.82322 18.9567 9.82732 18.9567 9.47459C18.9262 6.13182 16.1688 4.31072 12.8223 4.29021C12.3906 4.28611 12.3906 3.76111 12.8223 3.76111C16.5649 3.78162 19.5762 5.86931 19.6117 9.47049V9.47049ZM19.0379 13.4941V13.5023C18.4895 14.2816 17.4637 15.1429 16.4074 14.8681L16.3973 14.8558C15.3258 14.6138 12.802 13.5638 11.2074 12.5385C10.3848 12.0135 9.63322 11.3941 9.05431 10.7994C8.53126 10.2703 8.00314 9.64275 7.49025 8.88807C6.40861 7.30896 6.16994 6.6035 6.16994 6.6035C5.8297 5.75037 6.89103 4.92185 7.86095 4.47889H7.87111C8.3383 4.28201 8.78517 4.34764 9.08478 4.63885C9.08478 4.63885 9.71447 5.24588 9.98361 5.54529C10.2375 5.8242 10.5777 6.27127 10.7555 6.52146C11.0652 6.96853 10.8723 7.42381 10.5676 7.61248L9.95822 8.00623C9.64845 8.20721 9.68908 8.58045 9.68908 8.58045C9.68908 8.58045 10.593 11.3408 13.9699 12.0381C13.9699 12.0381 14.432 12.0709 14.6809 11.8207L15.1684 11.3285C15.402 11.0824 15.9656 10.9265 16.5192 11.1767C17.2656 11.5172 18.2152 12.0463 18.8449 12.5262C19.2004 12.7599 19.2817 13.1168 19.0379 13.4941Z" fill="black"/>
</g>
<defs>
<clipPath id="clip0_91710_2">
<rect width="26" height="21" fill="white"/>
</clipPath>
</defs>
</svg>
